<svg
    width="100mm"
    height="100mm"
    viewBox="0 0 100 100"
    version="1.1"
    xmlns="http://www.w3.org/2000/svg"
    >
    <style>
        svg {
            fill: white;
        }
    </style>
    <path
        d="M 45.850003 0.11331543 C 44.334862 0.11331543 42.819533 0.69144191 41.66382 1.8478971 C 28.356993 15.162043 15.042019 28.468197 1.7298394 41.77699 C -0.57854316 44.089902 -0.57854316 47.83499 1.7298394 50.147902 L 2.7170302 51.135089 L 12.939844 40.912786 C 12.856593 39.401591 13.391188 37.862657 14.544801 36.709048 C 15.620765 35.633088 17.032002 35.095075 18.443231 35.095075 C 19.854461 35.095075 21.265697 35.633087 22.341661 36.709048 C 24.493592 38.860971 24.44681 42.40074 22.341661 44.505882 C 21.188047 45.659492 19.649111 46.19361 18.13791 46.110358 L 7.9150954 56.333136 L 13.700537 62.118557 L 37.245441 38.573736 C 37.162328 37.062693 37.696906 35.523961 38.850398 34.370473 C 39.926363 33.294512 41.337598 32.7565 42.748828 32.7565 C 44.160057 32.7565 45.571293 33.294512 46.647258 34.370473 C 48.799188 36.522395 48.752407 40.062165 46.647258 42.167306 C 45.493526 43.321035 43.954383 43.855646 42.443031 43.772257 L 18.898602 67.316604 L 24.684993 73.10345 L 41.453941 56.334561 C 41.370414 54.823063 41.904569 53.283724 43.058423 52.129874 C 44.134388 51.053912 45.545624 50.515901 46.956853 50.515901 C 48.368082 50.515902 49.779319 51.053913 50.855283 52.129874 C 53.007214 54.281797 52.960432 57.821566 50.855283 59.926707 C 49.702031 61.079955 48.1637 61.614021 46.652956 61.531183 L 29.883058 78.301022 L 35.6685 84.086444 L 65.915285 53.840239 C 65.831758 52.328744 66.36639 50.789399 67.520242 49.635552 C 68.596204 48.559593 70.007445 48.021579 71.418672 48.021579 C 72.829897 48.021579 74.24114 48.559594 75.317102 49.635552 C 77.469028 51.787471 77.422247 55.327247 75.317102 57.432385 C 74.163492 58.585991 72.624546 59.120588 71.11335 59.037336 L 40.866565 89.284491 L 41.851856 90.269779 C 44.164652 92.577496 47.909052 92.577496 50.221848 90.269779 L 90.155828 50.335937 C 92.464211 48.023026 92.464211 44.277937 90.155828 41.965026 L 50.036186 1.8478971 C 48.880472 0.69144191 47.365144 0.11331543 45.850003 0.11331543 z "
        transform="matrix(1.0882932,0,0,1.088297,-5.6501969e-8,-0.12332084)" />
</svg>
